<?xml version="1.0" encoding="utf-8"?>
<!-- Generator: Adobe Illustrator 21.0.0, SVG Export Plug-In . SVG Version: 6.00 Build 0)  -->
<svg version="1.1" id="Layer_1" xmlns="http://www.w3.org/2000/svg" xmlns:xlink="http://www.w3.org/1999/xlink" x="0px" y="0px"
	 viewBox="0 0 64 64" style="enable-background:new 0 0 64 64;" xml:space="preserve">
<style type="text/css">
	.st0{fill:#00A14B;}
	.st1{fill:#FFFFFF;}
</style>
<rect class="st0" width="64" height="64"/>
<g>
	<polygon class="st1" points="35.9,8 35.9,10.7 40,10.7 40,26.7 24,26.7 24,10.7 28.1,10.7 28.1,8 21.3,8 21.3,29.4 42.7,29.4 
		42.7,8 	"/>
	<polygon class="st1" points="35.9,8 35.9,10.7 40,10.7 40,26.7 24,26.7 24,10.7 28.1,10.7 28.1,8 21.3,8 21.3,29.4 42.7,29.4 
		42.7,8 	"/>
	<polygon class="st1" points="28.1,56 28.1,53.3 24,53.3 24,37.3 40,37.3 40,53.3 35.9,53.3 35.9,56 42.7,56 42.7,34.6 21.3,34.6 
		21.3,56 	"/>
	<polygon class="st1" points="56,35.9 53.3,35.9 53.3,40 37.3,40 37.3,24 53.3,24 53.3,28.1 56,28.1 56,21.3 34.6,21.3 34.6,42.7 
		56,42.7 	"/>
	<polygon class="st1" points="8,28.1 10.7,28.1 10.7,24 26.7,24 26.7,40 10.7,40 10.7,35.9 8,35.9 8,42.7 29.4,42.7 29.4,21.3 
		8,21.3 	"/>
</g>
</svg>
