<?xml version="1.0" encoding="utf-8"?>
<!-- Generator: Adobe Illustrator 21.0.0, SVG Export Plug-In . SVG Version: 6.00 Build 0)  -->
<svg version="1.1" id="Layer_1" xmlns="http://www.w3.org/2000/svg" xmlns:xlink="http://www.w3.org/1999/xlink" x="0px" y="0px"
	 viewBox="0 0 128 128" style="enable-background:new 0 0 128 128;" xml:space="preserve">
<style type="text/css">
	.st0{fill:#BE1E2D;}
</style>
<path class="st0" d="M102.5,20.2c-22.9-22.9-60-22.9-82.9,0c-22.9,22.9-22.9,60,0,82.9c22.9,22.9,60,22.9,82.9,0
	S125.4,43.1,102.5,20.2z M94.7,95.2c-18.6,18.6-48.7,18.6-67.2,0C8.9,76.7,8.9,46.6,27.4,28C46,9.4,76.1,9.4,94.7,28
	C113.2,46.6,113.2,76.7,94.7,95.2z"/>
<rect x="101" y="70.8" transform="matrix(0.7071 -0.7071 0.7071 0.7071 -37.0429 101.4766)" class="st0" width="6" height="49.4"/>
<rect x="102.1" y="60" transform="matrix(0.7071 -0.7071 0.7071 0.7071 -29.128 99.153)" class="st0" width="6" height="49.4"/>
<rect x="84.3" y="77.8" transform="matrix(0.7071 -0.7071 0.7071 0.7071 -46.9308 91.7789)" class="st0" width="6" height="49.4"/>
<rect x="95" y="76.7" transform="matrix(0.7071 -0.7071 0.7071 0.7071 -42.9772 99.0186)" class="st0" width="6" height="49.4"/>
</svg>
